<svg width="27" height="36" viewBox="0 0 27 36" fill="none" xmlns="http://www.w3.org/2000/svg">
<path d="M25.3125 9H20.25V7.2C20.25 5.29044 19.5388 3.45909 18.273 2.10883C17.0071 0.758569 15.2902 0 13.5 0C11.7098 0 9.9929 0.758569 8.72703 2.10883C7.46116 3.45909 6.75 5.29044 6.75 7.2V9H1.6875C1.23995 9 0.810725 9.18964 0.494258 9.52721C0.17779 9.86477 0 10.3226 0 10.8V30.6C0 32.0322 0.533369 33.4057 1.48277 34.4184C2.43217 35.4311 3.71984 36 5.0625 36H21.9375C23.2802 36 24.5678 35.4311 25.5172 34.4184C26.4666 33.4057 27 32.0322 27 30.6V10.8C27 10.3226 26.8222 9.86477 26.5057 9.52721C26.1893 9.18964 25.7601 9 25.3125 9ZM10.125 7.2C10.125 6.24522 10.4806 5.32955 11.1135 4.65442C11.7465 3.97928 12.6049 3.6 13.5 3.6C14.3951 3.6 15.2535 3.97928 15.8865 4.65442C16.5194 5.32955 16.875 6.24522 16.875 7.2V9H10.125V7.2ZM23.625 30.6C23.625 31.0774 23.4472 31.5352 23.1307 31.8728C22.8143 32.2104 22.3851 32.4 21.9375 32.4H5.0625C4.61495 32.4 4.18573 32.2104 3.86926 31.8728C3.55279 31.5352 3.375 31.0774 3.375 30.6V12.6H6.75V14.4C6.75 14.8774 6.92779 15.3352 7.24426 15.6728C7.56073 16.0104 7.98995 16.2 8.4375 16.2C8.88505 16.2 9.31427 16.0104 9.63074 15.6728C9.94721 15.3352 10.125 14.8774 10.125 14.4V12.6H16.875V14.4C16.875 14.8774 17.0528 15.3352 17.3693 15.6728C17.6857 16.0104 18.1149 16.2 18.5625 16.2C19.0101 16.2 19.4393 16.0104 19.7557 15.6728C20.0722 15.3352 20.25 14.8774 20.25 14.4V12.6H23.625V30.6Z" fill="#0FA958"/>
</svg>
