<svg width="33" height="42" viewBox="0 0 33 42" fill="none" xmlns="http://www.w3.org/2000/svg">
<path d="M30.9375 10.5H24.75V8.4C24.75 6.17218 23.8808 4.03561 22.3336 2.4603C20.7865 0.884998 18.688 0 16.5 0C14.312 0 12.2135 0.884998 10.6664 2.4603C9.11919 4.03561 8.25 6.17218 8.25 8.4V10.5H2.0625C1.51549 10.5 0.990886 10.7212 0.604093 11.1151C0.217299 11.5089 0 12.043 0 12.6V35.7C0 37.3709 0.651896 38.9733 1.81228 40.1548C2.97266 41.3363 4.54647 42 6.1875 42H26.8125C28.4535 42 30.0273 41.3363 31.1877 40.1548C32.3481 38.9733 33 37.3709 33 35.7V12.6C33 12.043 32.7827 11.5089 32.3959 11.1151C32.0091 10.7212 31.4845 10.5 30.9375 10.5ZM12.375 8.4C12.375 7.28609 12.8096 6.2178 13.5832 5.43015C14.3568 4.6425 15.406 4.2 16.5 4.2C17.594 4.2 18.6432 4.6425 19.4168 5.43015C20.1904 6.2178 20.625 7.28609 20.625 8.4V10.5H12.375V8.4ZM28.875 35.7C28.875 36.257 28.6577 36.7911 28.2709 37.1849C27.8841 37.5788 27.3595 37.8 26.8125 37.8H6.1875C5.64049 37.8 5.11589 37.5788 4.72909 37.1849C4.3423 36.7911 4.125 36.257 4.125 35.7V14.7H8.25V16.8C8.25 17.357 8.4673 17.8911 8.85409 18.2849C9.24089 18.6787 9.76549 18.9 10.3125 18.9C10.8595 18.9 11.3841 18.6787 11.7709 18.2849C12.1577 17.8911 12.375 17.357 12.375 16.8V14.7H20.625V16.8C20.625 17.357 20.8423 17.8911 21.2291 18.2849C21.6159 18.6787 22.1405 18.9 22.6875 18.9C23.2345 18.9 23.7591 18.6787 24.1459 18.2849C24.5327 17.8911 24.75 17.357 24.75 16.8V14.7H28.875V35.7Z" fill="#0FA958"/>
</svg>
