<svg width="120" height="174" viewBox="0 0 120 174" fill="none" xmlns="http://www.w3.org/2000/svg">
<path fill-rule="evenodd" clip-rule="evenodd" d="M112.283 32.7604L120 142.34C120 145.071 118.105 147.437 115.44 148.033L3.18114 173.144C0.111514 173.83 -0.174652 168.47 0.0659681 165.704L1.62355 147.013L3.18114 122.092L4.73872 97.1702L6.29631 81.5944C6.8155 75.8832 7.85389 62.9034 7.85389 56.673C7.85389 51.8857 9.08006 49.8573 10.1191 49.1745C10.4907 48.9303 10.9355 48.8516 11.3792 48.7731L11.3793 48.7731C11.5398 48.7447 11.7002 48.7164 11.8568 48.6802L31.2177 44.2123V30.1941C32.7752 21.887 40.2517 4.33822 57.6966 0.600016C75.1416 -3.13819 84.6947 11.5031 87.2907 19.291V31.7517C90.9251 31.2325 99.4399 29.8826 104.424 28.6366C108.534 27.6091 110.808 29.3352 111.771 30.8456C112.132 31.4119 112.236 32.0906 112.283 32.7604ZM9.41151 162.589L17.1994 56.673L31.2177 55.1155V64.461C34.9559 70.6913 39.0056 67.0569 40.5632 64.461V52.0003L77.9452 44.2124V55.1155C82.9295 60.0997 86.2524 57.1922 87.2907 55.1155V41.0972L102.867 39.5396L110.655 140.783L9.41151 162.589ZM40.5632 42.6548L77.9453 34.8668V19.291C76.3877 16.1758 71.0919 9.94547 62.3694 9.94547C60.8118 9.94547 46.7936 11.5031 42.1208 28.6365C40.8747 32.3747 40.5632 39.5396 40.5632 42.6548Z" fill="#8F9B83"/>
<path d="M40.4396 128.936L28.8628 129.827L25.3991 84.8062L67.6062 81.559L56.9745 90.5287L37.5994 92.0193L38.6385 105.526L52.386 104.468L53.516 111.474L39.4053 112.885L40.4396 128.936Z" fill="#AEAEAE"/>
<path d="M96.488 122.493L92.9978 77.1269L73.3608 78.6376C69.2995 78.9501 65.8513 79.889 63.0164 81.4544C60.1781 82.9766 58.0544 85.0306 56.6453 87.6163C55.2362 90.202 54.6629 93.2015 54.9255 96.6148C55.1848 99.9848 56.2084 102.84 57.9965 105.179C59.7813 107.476 62.1925 109.159 65.2302 110.229C68.2679 111.3 71.8174 111.678 75.8788 111.366L89.683 110.304L84.6628 106.061L85.989 123.301L96.488 122.493ZM67.6482 124.712L77.7233 107.378L66.5114 108.24L56.3068 125.584L67.6482 124.712ZM84.7525 107.228L89.0398 101.944L75.8188 102.961C72.5784 103.21 70.1057 102.705 68.4007 101.445C66.6924 100.143 65.7435 98.2598 65.5541 95.797C65.3613 93.2911 66.011 91.2854 67.5032 89.7798C68.9955 88.2742 71.3618 87.3968 74.6022 87.1475L87.8232 86.1303L82.773 81.4991L84.7525 107.228Z" fill="black"/>
</svg>
