<svg width="43" height="62" viewBox="0 0 43 62" fill="none" xmlns="http://www.w3.org/2000/svg">
<path fill-rule="evenodd" clip-rule="evenodd" d="M39.8326 12.2596L42.5212 50.4373C42.5212 51.405 41.8498 52.2432 40.9053 52.4545L1.12721 61.3522C0.0395144 61.5955 -0.0618867 59.6962 0.0233753 58.7161L0.575295 52.093L1.12721 43.2623L1.67913 34.4316L2.23105 28.9124C2.41503 26.8887 2.78297 22.2894 2.78297 20.0817C2.78297 18.969 2.96992 18.2769 3.20248 17.8641C3.46336 17.401 4.02313 17.2803 4.55509 17.1656L4.55515 17.1656C4.62913 17.1497 4.70256 17.1339 4.77458 17.1172L11.0618 15.6663V10.6991C11.6137 7.7555 14.2629 1.53722 20.4444 0.212612C26.6259 -1.112 30.011 4.07605 30.9309 6.83565V11.251C32.2187 11.067 35.2358 10.5887 37.002 10.1472C38.0186 9.89302 38.7182 10.1143 39.1641 10.4532C39.6986 10.8595 39.7854 11.5899 39.8326 12.2596ZM3.3349 57.6122L6.09449 20.0817L11.0618 19.5298V22.8413C12.3864 25.049 13.8214 23.7612 14.3733 22.8413V18.4259L27.6194 15.6663V19.5298C29.3855 21.2959 30.5629 20.2657 30.9309 19.5298V14.5625L36.4501 14.0106L39.2097 49.8853L3.3349 57.6122ZM14.3733 15.1144L27.6194 12.3548V6.83563C27.0674 5.73179 25.1909 3.52411 22.1002 3.52411C21.5482 3.52411 16.581 4.07603 14.9252 10.1471C14.4837 11.4718 14.3733 14.0106 14.3733 15.1144Z" fill="#8F9B83"/>
<path d="M14.3295 45.6878L10.2273 46.0034L9 30.0505L23.9558 28.8999L20.1885 32.0782L13.3231 32.6064L13.6913 37.3923L18.5626 37.0175L18.963 39.5L13.963 40L14.3295 45.6878Z" fill="#AEAEAE"/>
<path d="M34.1617 44.085L32.873 27.3345L25.6224 27.8924C24.1228 28.0077 22.8497 28.3544 21.8029 28.9324C20.7549 29.4945 19.9708 30.2528 19.4505 31.2076C18.9302 32.1623 18.7185 33.2698 18.8155 34.5301C18.9112 35.7744 19.2892 36.8285 19.9494 37.6924C20.6084 38.5403 21.4987 39.1619 22.6203 39.557C23.7419 39.9521 25.0525 40.092 26.5521 39.9766L31.649 39.5845L29.7954 38.0181L30.2851 44.3833L34.1617 44.085ZM23.5131 44.9043L27.2331 38.5041L23.0934 38.8226L19.3255 45.2265L23.5131 44.9043ZM29.8286 38.4488L31.4115 36.4976L26.53 36.8732C25.3335 36.9653 24.4205 36.7787 23.791 36.3137C23.1602 35.8326 22.8099 35.1375 22.7399 34.2281C22.6687 33.3029 22.9086 32.5623 23.4596 32.0064C24.0106 31.4505 24.8843 31.1265 26.0808 31.0345L30.9623 30.6589L29.0977 28.9489L29.8286 38.4488Z" fill="black"/>
</svg>
